<svg width="283" height="243" xmlns="http://www.w3.org/2000/svg" xmlns:xlink="http://www.w3.org/1999/xlink" overflow="hidden"><defs><clipPath id="clip0"><rect x="572" y="17" width="283" height="243"/></clipPath></defs><g clip-path="url(#clip0)" transform="translate(-572 -17)"><path d="M694.015 54.4586C726.292 62.9252 742 76.0053 742 102.585 742 109.229 740.657 115.56 738.229 121.317L736.483 124.544C736.824 128.274 736.165 115.628 734.506 124.371 735.086 121.238 741.14 109.855 734.391 100.134 727.643 90.4126 708.001 63.7051 694.015 66.0445 680.029 68.384 650.473 87.5912 650.473 114.17 650.473 117.493 650.778 120.737 651.358 123.87L648.881 129C648.299 127.924 648.606 122.393 648.024 121.317 645.596 115.56 646.03 109.229 646.03 102.585 646.03 76.0053 661.738 45.9921 694.015 54.4586Z" fill="#FFFFFF" fill-rule="evenodd"/><path d="M655.767 138 658.178 142.986C665.941 155.886 679.088 164.367 694 164.367 708.912 164.367 722.059 155.886 729.822 142.986L732.233 138 730.12 146.423C728.136 152.225 725.266 157.45 721.719 161.838L716.023 167.652 724.192 170.694C738.556 177.351 748 188.625 748 201.411 748 209.084 744.6 216.211 738.778 222.123L737.723 223 735.823 222.727C723.542 221.282 708.737 220.439 692.8 220.439 682.175 220.439 672.054 220.814 662.848 221.492L649.931 222.712 649.222 222.123C643.4 216.211 640 209.084 640 201.411 640 188.625 649.444 177.351 663.808 170.694L671.977 167.652 666.281 161.838C662.734 157.45 659.864 152.225 657.881 146.423Z" fill="#FFFFFF" fill-rule="evenodd"/><path d="M693.943 18C748.215 18 794.137 53.6152 809.45 102.667L810 104.8 798.398 104.8 795.416 96.682C778.652 57.1927 739.406 29.4843 693.665 29.4843 632.677 29.4843 583.236 78.7437 583.236 139.508 583.236 200.273 632.677 249.532 693.665 249.532 743.218 249.532 785.148 217.014 799.129 172.226L799.136 172.2 810 172.2 809.45 174.333C794.137 223.385 748.215 259 693.943 259 627.148 259 573 205.05 573 138.5 573 71.9497 627.148 18 693.943 18Z" fill="#FFFFFF" fill-rule="evenodd"/><path d="M821.342 111 835.658 111 835.658 130.967 854 130.967 854 145 835.658 145 821.342 145 803 145 803 130.967 821.342 130.967 821.342 111Z" fill="#FFFFFF" fill-rule="evenodd"/><path d="M665 109 688 109 688 116.345C688 117.811 686.789 119 685.294 119L667.706 119C666.211 119 665 117.811 665 116.345L665 109Z" fill="#FFFFFF" fill-rule="evenodd"/><path d="M700 109 723 109 723 116.345C723 117.811 721.789 119 720.294 119L702.706 119C701.211 119 700 117.811 700 116.345L700 109Z" fill="#FFFFFF" fill-rule="evenodd"/></g></svg>