<svg width="231" height="255" xmlns="http://www.w3.org/2000/svg" xmlns:xlink="http://www.w3.org/1999/xlink" overflow="hidden"><defs><clipPath id="clip0"><rect x="916" y="380" width="231" height="255"/></clipPath></defs><g clip-path="url(#clip0)" transform="translate(-916 -380)"><path d="M974.566 381 1093.71 381C1110.16 381 1147 394.353 1147 410.824L1146.15 425.401 1145.28 425.984C1143.74 426.638 1142.04 427 1140.26 427L923.74 427 920.3 426.305 917 409.754C917 393.283 958.115 381 974.566 381Z" fill="#FFFFFF" fill-rule="evenodd"/><path d="M1018.44 451.619C1014.73 451.619 1011.72 454.635 1011.72 458.355L1011.72 616.645C1011.72 620.365 1014.73 623.381 1018.44 623.381L1045.34 623.381C1049.05 623.381 1052.06 620.365 1052.06 616.645L1052.06 458.355C1052.06 454.635 1049.05 451.619 1045.34 451.619ZM1080.58 451.619C1076.87 451.619 1073.86 454.635 1073.86 458.355L1073.86 599.974C1073.86 603.694 1076.87 606.71 1080.58 606.71L1107.48 606.71C1111.19 606.71 1114.2 603.694 1114.2 599.974L1114.2 458.355C1114.2 454.635 1111.19 451.619 1107.48 451.619ZM956.299 451.619C952.586 451.619 949.575 454.635 949.575 458.355L949.575 599.974C949.575 603.694 952.586 606.71 956.299 606.71L983.196 606.71C986.91 606.71 989.92 603.694 989.92 599.974L989.92 458.355C989.92 454.635 986.91 451.619 983.196 451.619ZM938.255 440 1125.74 440C1131.41 440 1136 444.599 1136 450.273L1136 610.482 1132.69 612.551C1118.44 620.594 1102.72 626.964 1085.94 631.324L1068.83 635 996.843 635 979.729 631.324C962.952 626.964 947.236 620.594 932.984 612.551L928 609.437 928 450.273C928 444.599 932.591 440 938.255 440Z" fill="#FFFFFF" fill-rule="evenodd"/></g></svg>