<svg width="231" height="256" xmlns="http://www.w3.org/2000/svg" xmlns:xlink="http://www.w3.org/1999/xlink" overflow="hidden"><defs><clipPath id="clip0"><rect x="645" y="379" width="231" height="256"/></clipPath></defs><g clip-path="url(#clip0)" transform="translate(-645 -379)"><path d="M703.566 380 822.708 380C839.159 380 876 393.353 876 409.824L875.148 424.401 874.285 424.984C872.74 425.638 871.042 426 869.26 426L652.74 426 649.3 425.305 646 408.754C646 392.283 687.115 380 703.566 380Z" fill-rule="evenodd"/><path d="M747.441 450.619C743.727 450.619 740.717 453.635 740.717 457.355L740.717 615.645C740.717 619.365 743.727 622.381 747.441 622.381L774.338 622.381C778.052 622.381 781.062 619.365 781.062 615.645L781.062 457.355C781.062 453.635 778.052 450.619 774.338 450.619ZM809.583 450.619C805.869 450.619 802.858 453.635 802.858 457.355L802.858 598.974C802.858 602.694 805.869 605.71 809.583 605.71L836.479 605.71C840.193 605.71 843.204 602.694 843.204 598.974L843.204 457.355C843.204 453.635 840.193 450.619 836.479 450.619ZM685.299 450.619C681.586 450.619 678.575 453.635 678.575 457.355L678.575 598.974C678.575 602.694 681.586 605.71 685.299 605.71L712.196 605.71C715.91 605.71 718.92 602.694 718.92 598.974L718.92 457.355C718.92 453.635 715.91 450.619 712.196 450.619ZM667.255 439 854.745 439C860.409 439 865 443.599 865 449.273L865 609.482 861.688 611.551C847.436 619.594 831.72 625.964 814.943 630.324L797.829 634 725.843 634 708.729 630.324C691.952 625.964 676.236 619.594 661.984 611.551L657 608.437 657 449.273C657 443.599 661.591 439 667.255 439Z" fill-rule="evenodd"/></g></svg>