<svg width="537" height="277" xmlns="http://www.w3.org/2000/svg" xmlns:xlink="http://www.w3.org/1999/xlink" overflow="hidden"><defs><clipPath id="clip0"><rect x="710" y="85" width="537" height="277"/></clipPath></defs><g clip-path="url(#clip0)" transform="translate(-710 -85)"><path d="M849 228C849 155.098 907.875 96 980.5 96 1053.13 96 1112 155.098 1112 228 1112 300.902 1053.13 360 980.5 360 907.875 360 849 300.902 849 228Z" stroke="#FFFFFF" stroke-width="2" stroke-miterlimit="8" fill="none" fill-rule="evenodd"/><path d="M979.5 110C1044.39 110 1097 162.607 1097 227.5 1097 292.393 1044.39 345 979.5 345 914.607 345 862 292.393 862 227.5 862 162.607 914.607 110 979.5 110ZM962.132 137.406C959.422 137.406 957.506 137.623 956.386 138.056 955.266 138.49 954.706 139.285 954.706 140.441L954.706 162.23 943.866 162.23C941.842 162.23 940.18 162.898 938.88 164.235 937.579 165.572 936.928 167.433 936.928 169.818L936.928 294.913C936.928 297.298 937.561 299.158 938.825 300.495 940.09 301.832 941.77 302.501 943.866 302.501L954.706 302.501 954.706 326.024C954.706 327.18 955.248 327.975 956.332 328.409 957.416 328.842 959.313 329.059 962.023 329.059 964.733 329.059 966.648 328.842 967.768 328.409 968.888 327.975 969.449 327.18 969.449 326.024L969.449 302.501 987.985 302.501 987.985 326.024C987.985 327.18 988.527 327.975 989.611 328.409 990.695 328.842 992.592 329.059 995.302 329.059 998.012 329.059 999.927 328.842 1001.05 328.409 1002.17 327.975 1002.73 327.18 1002.73 326.024L1002.73 300.983C1013.64 299.032 1022.11 294.678 1028.15 287.921 1034.18 281.164 1037.2 272.546 1037.2 262.067 1037.2 256.575 1036.21 251.516 1034.22 246.891 1032.23 242.266 1029.27 238.309 1025.33 235.021 1021.39 231.733 1016.86 229.439 1011.73 228.138 1017.8 225.536 1022.53 221.579 1025.93 216.268 1029.32 210.956 1031.02 204.832 1031.02 197.894 1031.02 191.968 1029.95 186.656 1027.82 181.959 1025.69 177.262 1022.51 173.359 1018.28 170.252 1014.06 167.144 1008.87 164.976 1002.73 163.748L1002.73 140.441C1002.73 139.285 1002.19 138.49 1001.1 138.056 1000.02 137.623 998.121 137.406 995.411 137.406 992.701 137.406 990.786 137.623 989.665 138.056 988.545 138.49 987.985 139.285 987.985 140.441L987.985 162.23 969.449 162.23 969.449 140.441C969.449 139.285 968.907 138.49 967.823 138.056 966.739 137.623 964.842 137.406 962.132 137.406Z" stroke="#FFFFFF" stroke-width="2" stroke-miterlimit="8" fill="#FFFFFF" fill-rule="evenodd"/><path d="M956 177 986.585 177C992.615 177 997.444 177.858 1001.07 179.574 1004.69 181.29 1007.42 183.863 1009.25 187.295 1011.08 190.727 1012 194.889 1012 199.781 1012 204.454 1011.08 208.543 1009.25 212.048 1007.42 215.552 1004.75 218.254 1001.23 220.152 997.713 222.051 993.082 223 987.338 223L956 223 956 177Z" stroke="#FFFFFF" stroke-width="2" stroke-miterlimit="8" fill="#FFFFFF" fill-rule="evenodd"/><path d="M956 238 986.838 238C994.027 238 999.867 238.965 1004.36 240.895 1008.85 242.825 1012.25 245.648 1014.55 249.365 1016.85 253.082 1018 257.586 1018 262.875 1018 267.807 1016.89 272.078 1014.66 275.688 1012.43 279.298 1009.18 282.086 1004.9 284.051 1000.62 286.017 995.213 287 988.671 287L956 287 956 238Z" stroke="#FFFFFF" stroke-width="2" stroke-miterlimit="8" fill="#FFFFFF" fill-rule="evenodd"/><path d="M712 132C712 107.147 732.371 87 757.5 87 782.629 87 803 107.147 803 132 803 156.853 782.629 177 757.5 177 732.371 177 712 156.853 712 132Z" stroke="#FFFFFF" stroke-width="2" stroke-miterlimit="8" fill="none" fill-rule="evenodd"/><path d="M757 92C779.091 92 797 109.909 797 132 797 154.091 779.091 172 757 172 734.909 172 717 154.091 717 132 717 109.909 734.909 92 757 92ZM751.087 101.33C750.165 101.33 749.513 101.404 749.131 101.551 748.75 101.699 748.56 101.969 748.56 102.363L748.56 109.78 744.869 109.78C744.18 109.78 743.615 110.008 743.172 110.463 742.729 110.918 742.508 111.552 742.508 112.364L742.508 154.949C742.508 155.761 742.723 156.394 743.153 156.85 743.584 157.305 744.156 157.532 744.869 157.532L748.56 157.532 748.56 165.54C748.56 165.934 748.744 166.204 749.113 166.352 749.482 166.5 750.128 166.573 751.05 166.573 751.973 166.573 752.625 166.5 753.006 166.352 753.388 166.204 753.578 165.934 753.578 165.54L753.578 157.532 759.889 157.532 759.889 165.54C759.889 165.934 760.073 166.204 760.442 166.352 760.811 166.5 761.457 166.573 762.38 166.573 763.302 166.573 763.954 166.5 764.335 166.352 764.717 166.204 764.907 165.934 764.907 165.54L764.907 157.016C768.622 156.351 771.507 154.869 773.561 152.569 775.615 150.269 776.642 147.335 776.642 143.768 776.642 141.898 776.304 140.176 775.628 138.601 774.951 137.027 773.942 135.68 772.602 134.56 771.261 133.441 769.717 132.66 767.97 132.217 770.037 131.331 771.648 129.985 772.804 128.176 773.961 126.368 774.539 124.283 774.539 121.921 774.539 119.904 774.176 118.096 773.45 116.497 772.724 114.898 771.642 113.569 770.203 112.511 768.764 111.453 766.998 110.715 764.907 110.297L764.907 102.363C764.907 101.969 764.723 101.699 764.354 101.551 763.985 101.404 763.339 101.33 762.416 101.33 761.494 101.33 760.842 101.404 760.461 101.551 760.079 101.699 759.889 101.969 759.889 102.363L759.889 109.78 753.578 109.78 753.578 102.363C753.578 101.969 753.394 101.699 753.025 101.551 752.656 101.404 752.01 101.33 751.087 101.33Z" stroke="#FFFFFF" stroke-width="2" stroke-miterlimit="8" fill="#FFFFFF" fill-rule="evenodd"/><path d="M748 314.5C748 289.371 768.371 269 793.5 269 818.629 269 839 289.371 839 314.5 839 339.629 818.629 360 793.5 360 768.371 360 748 339.629 748 314.5Z" stroke="#FFFFFF" stroke-width="2" stroke-miterlimit="8" fill="none" fill-rule="evenodd"/><path d="M793 274C815.091 274 833 292.132 833 314.5 833 336.868 815.091 355 793 355 770.909 355 753 336.868 753 314.5 753 292.132 770.909 274 793 274ZM787.087 283.446C786.165 283.446 785.513 283.521 785.131 283.671 784.75 283.82 784.56 284.094 784.56 284.493L784.56 292.003 780.869 292.003C780.18 292.003 779.615 292.233 779.172 292.694 778.729 293.155 778.508 293.796 778.508 294.618L778.508 337.736C778.508 338.558 778.723 339.199 779.153 339.66 779.584 340.121 780.156 340.351 780.869 340.351L784.56 340.351 784.56 348.459C784.56 348.858 784.744 349.132 785.113 349.281 785.482 349.431 786.128 349.505 787.05 349.505 787.973 349.505 788.625 349.431 789.006 349.281 789.388 349.132 789.578 348.858 789.578 348.459L789.578 340.351 795.889 340.351 795.889 348.459C795.889 348.858 796.073 349.132 796.442 349.281 796.811 349.431 797.457 349.505 798.38 349.505 799.302 349.505 799.954 349.431 800.335 349.281 800.717 349.132 800.907 348.858 800.907 348.459L800.907 339.828C804.622 339.156 807.507 337.655 809.561 335.326 811.615 332.997 812.642 330.026 812.642 326.415 812.642 324.522 812.304 322.778 811.628 321.184 810.951 319.59 809.942 318.226 808.602 317.092 807.261 315.959 805.717 315.168 803.97 314.72 806.037 313.823 807.648 312.459 808.804 310.628 809.961 308.798 810.539 306.687 810.539 304.295 810.539 302.253 810.176 300.422 809.45 298.803 808.724 297.184 807.642 295.839 806.203 294.768 804.764 293.696 802.998 292.949 800.907 292.526L800.907 284.493C800.907 284.094 800.723 283.82 800.354 283.671 799.985 283.521 799.339 283.446 798.416 283.446 797.494 283.446 796.842 283.521 796.461 283.671 796.079 283.82 795.889 284.094 795.889 284.493L795.889 292.003 789.578 292.003 789.578 284.493C789.578 284.094 789.394 283.82 789.025 283.671 788.656 283.521 788.01 283.446 787.087 283.446Z" stroke="#FFFFFF" stroke-width="2" stroke-miterlimit="8" fill="#FFFFFF" fill-rule="evenodd"/><path d="M1154 172.5C1154 147.371 1174.37 127 1199.5 127 1224.63 127 1245 147.371 1245 172.5 1245 197.629 1224.63 218 1199.5 218 1174.37 218 1154 197.629 1154 172.5Z" stroke="#FFFFFF" stroke-width="2" stroke-miterlimit="8" fill="none" fill-rule="evenodd"/><path d="M1199.5 132C1221.87 132 1240 149.909 1240 172 1240 194.091 1221.87 212 1199.5 212 1177.13 212 1159 194.091 1159 172 1159 149.909 1177.13 132 1199.5 132ZM1193.51 141.33C1192.58 141.33 1191.92 141.404 1191.53 141.551 1191.15 141.699 1190.95 141.969 1190.95 142.363L1190.95 149.78 1187.22 149.78C1186.52 149.78 1185.95 150.008 1185.5 150.463 1185.05 150.918 1184.83 151.552 1184.83 152.364L1184.83 194.949C1184.83 195.761 1185.04 196.394 1185.48 196.85 1185.92 197.305 1186.5 197.532 1187.22 197.532L1190.95 197.532 1190.95 205.54C1190.95 205.934 1191.14 206.204 1191.51 206.352 1191.89 206.5 1192.54 206.573 1193.48 206.573 1194.41 206.573 1195.07 206.5 1195.46 206.352 1195.84 206.204 1196.04 205.934 1196.04 205.54L1196.04 197.532 1202.42 197.532 1202.42 205.54C1202.42 205.934 1202.61 206.204 1202.99 206.352 1203.36 206.5 1204.01 206.573 1204.95 206.573 1205.88 206.573 1206.54 206.5 1206.93 206.352 1207.31 206.204 1207.51 205.934 1207.51 205.54L1207.51 197.016C1211.27 196.351 1214.19 194.869 1216.27 192.569 1218.35 190.269 1219.39 187.335 1219.39 183.768 1219.39 181.898 1219.05 180.176 1218.36 178.601 1217.68 177.027 1216.65 175.68 1215.3 174.56 1213.94 173.441 1212.38 172.66 1210.61 172.217 1212.7 171.331 1214.33 169.985 1215.5 168.176 1216.67 166.368 1217.26 164.283 1217.26 161.921 1217.26 159.904 1216.89 158.096 1216.16 156.497 1215.42 154.898 1214.33 153.569 1212.87 152.511 1211.41 151.453 1209.62 150.715 1207.51 150.297L1207.51 142.363C1207.51 141.969 1207.32 141.699 1206.95 141.551 1206.57 141.404 1205.92 141.33 1204.98 141.33 1204.05 141.33 1203.39 141.404 1203 141.551 1202.62 141.699 1202.42 141.969 1202.42 142.363L1202.42 149.78 1196.04 149.78 1196.04 142.363C1196.04 141.969 1195.85 141.699 1195.47 141.551 1195.1 141.404 1194.45 141.33 1193.51 141.33Z" stroke="#FFFFFF" stroke-width="2" stroke-miterlimit="8" fill="#FFFFFF" fill-rule="evenodd"/><path d="M789 164 848.8 227.854" stroke="#FFFFFF" stroke-width="2" stroke-miterlimit="8" fill="none" fill-rule="evenodd"/><path d="M0 0 28.4214 17.223" stroke="#FFFFFF" stroke-width="2" stroke-miterlimit="8" fill="none" fill-rule="evenodd" transform="matrix(-1 0 0 1 853.421 265)"/><path d="M0 0 48.115 14.1122" stroke="#FFFFFF" stroke-width="2" stroke-miterlimit="8" fill="none" fill-rule="evenodd" transform="matrix(-1 0 0 1 1156.11 182)"/></g></svg>