<svg width="304" height="392" xmlns="http://www.w3.org/2000/svg" xmlns:xlink="http://www.w3.org/1999/xlink" overflow="hidden"><defs><clipPath id="clip0"><rect x="41" y="310" width="304" height="392"/></clipPath></defs><g clip-path="url(#clip0)" transform="translate(-41 -310)"><path d="M163.161 310C167.049 310 169.771 310.312 171.326 310.936 172.881 311.559 173.659 312.703 173.659 314.366L173.659 345.709 200.255 345.709 200.255 314.366C200.255 312.703 201.058 311.559 202.665 310.936 204.272 310.312 207.02 310 210.908 310 214.797 310 217.518 310.312 219.074 310.936 220.629 311.559 221.407 312.703 221.407 314.366L221.407 347.893C230.22 349.66 237.66 352.779 243.725 357.249 249.791 361.719 254.353 367.333 257.412 374.09 260.471 380.847 262 388.488 262 397.013 262 399.508 261.848 401.929 261.543 404.278L261.398 405 233.767 405 234.316 399.819C234.316 392.854 232.994 386.929 230.35 382.043 227.706 377.157 223.766 373.492 218.529 371.049 213.293 368.606 206.32 367.385 197.611 367.385L153.44 367.385 153.44 405 127 405 127 356.625C127 353.194 127.933 350.518 129.799 348.594 131.666 346.671 134.051 345.709 136.954 345.709L152.507 345.709 152.507 314.366C152.507 312.703 153.31 311.559 154.918 310.936 156.525 310.312 159.272 310 163.161 310Z" fill="#FFFFFF" fill-rule="evenodd"/><path d="M153 405 234 405 233.554 409.194C232.887 412.117 231.887 414.832 230.554 417.338 227.888 422.35 223.993 426.213 218.87 428.928 213.747 431.643 207.003 433 198.639 433L153 433 153 405Z" fill="#FFFFFF" fill-rule="evenodd"/><path d="M153 454 197.765 454C208.2 454 216.678 455.418 223.2 458.254 229.722 461.09 234.652 465.238 237.991 470.7 241.33 476.162 243 482.779 243 490.551 243 497.799 241.383 504.074 238.148 509.379 234.913 514.683 230.191 518.779 223.983 521.667 217.774 524.556 209.922 526 200.426 526L153 526 153 454Z" fill="#FFFFFF" fill-rule="evenodd"/><path d="M152.234 589.717 152.234 635.471 118.766 635.471 185.702 681.225 252.639 635.471 219.171 635.471 219.171 589.717 198.69 589.717 198.69 628.005C198.69 630.402 196.752 632.345 194.361 632.345L177.044 632.345C174.653 632.345 172.715 630.402 172.715 628.005L172.715 589.717ZM41 405 126.371 405 126.371 536.599C126.371 540.03 127.279 542.707 129.094 544.631 130.91 546.555 133.322 547.516 136.33 547.516L151.892 547.516 151.892 581.36C151.892 583.024 152.67 584.168 154.226 584.792 155.782 585.415 158.505 585.727 162.396 585.727 166.286 585.727 169.035 585.415 170.643 584.792 171.447 584.48 172.05 584.038 172.452 583.466L172.715 582.55 172.715 565.408 173.055 564.584 173.055 547.516 199.665 547.516 199.665 581.36C199.665 583.024 200.443 584.168 201.999 584.792 203.556 585.415 206.279 585.727 210.169 585.727 214.06 585.727 216.809 585.415 218.417 584.792 220.025 584.168 220.829 583.024 220.829 581.36L220.829 545.333C236.494 542.525 248.658 536.261 257.32 526.539 265.983 516.817 270.314 504.418 270.314 489.342 270.314 481.44 268.888 474.161 266.035 467.507 263.182 460.852 258.928 455.16 253.274 450.429 247.62 445.698 241.111 442.397 233.745 440.525 242.459 436.782 249.254 431.089 254.13 423.447 256.568 419.626 258.397 415.512 259.616 411.106L260.842 405 334.239 405 283.698 527.025 344 672.617 319.403 679.267C246.727 699.093 184.115 715.324 41 685.946Z" fill="#FFFFFF" fill-rule="evenodd"/></g></svg>