<svg width="510" height="392" xmlns="http://www.w3.org/2000/svg" xmlns:xlink="http://www.w3.org/1999/xlink" overflow="hidden"><defs><clipPath id="clip0"><rect x="41" y="310" width="510" height="392"/></clipPath></defs><g clip-path="url(#clip0)" transform="translate(-41 -310)"><path d="M163.161 310C167.049 310 169.771 310.312 171.326 310.936 172.881 311.559 173.659 312.703 173.659 314.366L173.659 345.709 200.255 345.709 200.255 314.366C200.255 312.703 201.058 311.559 202.665 310.936 204.272 310.312 207.02 310 210.908 310 214.797 310 217.518 310.312 219.074 310.936 220.629 311.559 221.407 312.703 221.407 314.366L221.407 347.893C230.22 349.66 237.66 352.779 243.725 357.249 249.791 361.719 254.353 367.333 257.412 374.09 260.471 380.847 262 388.488 262 397.013 262 399.508 261.848 401.929 261.543 404.278L261.398 405 233.767 405 234.316 399.819C234.316 392.854 232.994 386.929 230.35 382.043 227.706 377.157 223.766 373.492 218.529 371.049 213.293 368.606 206.32 367.385 197.611 367.385L153.44 367.385 153.44 405 127 405 127 356.625C127 353.194 127.933 350.518 129.799 348.594 131.666 346.671 134.051 345.709 136.954 345.709L152.507 345.709 152.507 314.366C152.507 312.703 153.31 311.559 154.918 310.936 156.525 310.312 159.272 310 163.161 310Z" fill="#FFFFFF" fill-rule="evenodd"/><path d="M385.114 439.49 385.114 482.151 304.666 482.151 304.666 567.472 385.114 567.472 385.114 610.133 465.561 524.812ZM41 405 126.396 405 126.396 536.599C126.396 540.03 127.304 542.707 129.12 544.631 130.936 546.555 133.348 547.516 136.358 547.516L151.924 547.516 151.924 581.36C151.924 583.024 152.702 584.168 154.259 584.792 155.815 585.415 158.539 585.727 162.431 585.727 166.322 585.727 169.072 585.415 170.681 584.792 172.289 584.168 173.094 583.024 173.094 581.36L173.094 547.516 199.711 547.516 199.711 581.36C199.711 583.024 200.49 584.168 202.046 584.792 203.603 585.415 206.327 585.727 210.218 585.727 214.11 585.727 216.86 585.415 218.468 584.792 220.077 584.168 220.881 583.024 220.881 581.36L220.881 545.333C236.551 542.525 248.718 536.261 257.383 526.539 266.048 516.817 270.381 504.418 270.381 489.342 270.381 481.44 268.954 474.161 266.1 467.507 263.246 460.852 258.992 455.16 253.336 450.429 247.68 445.698 241.169 442.397 233.801 440.525 242.518 436.782 249.315 431.089 254.192 423.447 256.631 419.626 258.46 415.512 259.679 411.106L260.906 405 550 405 550 646.252C295.5 646.252 295.5 738.174 41 685.946Z" fill="#FFFFFF" fill-rule="evenodd"/><path d="M153 405 234 405 233.554 409.194C232.887 412.117 231.887 414.832 230.554 417.338 227.888 422.35 223.993 426.213 218.87 428.928 213.747 431.643 207.003 433 198.639 433L153 433 153 405Z" fill="#FFFFFF" fill-rule="evenodd"/><path d="M153 454 197.765 454C208.2 454 216.678 455.418 223.2 458.254 229.722 461.09 234.652 465.238 237.991 470.7 241.33 476.162 243 482.779 243 490.551 243 497.799 241.383 504.074 238.148 509.379 234.913 514.683 230.191 518.779 223.983 521.667 217.774 524.556 209.922 526 200.426 526L153 526 153 454Z" fill="#FFFFFF" fill-rule="evenodd"/></g></svg>