<svg width="179" height="277" xmlns="http://www.w3.org/2000/svg" xmlns:xlink="http://www.w3.org/1999/xlink" overflow="hidden"><defs><clipPath id="clip0"><rect x="20" y="307" width="179" height="277"/></clipPath></defs><g clip-path="url(#clip0)" transform="translate(-20 -307)"><path d="M138.261 452.865 80.4545 509.061 80.4545 522.96 127.628 522.96C137.073 522.96 144.884 521.535 151.06 518.683 157.235 515.831 161.932 511.787 165.149 506.551 168.367 501.314 169.976 495.118 169.976 487.963 169.976 480.29 168.315 473.757 164.994 468.365 161.672 462.973 156.768 458.877 150.281 456.077 147.038 454.677 143.308 453.627 139.091 452.927ZM80.4545 365.24 80.4545 369.148 141.137 428.14 145.844 426.524C150.93 423.828 154.796 419.991 157.443 415.014 160.09 410.036 161.413 404.229 161.413 397.593 161.413 390.645 160.09 384.735 157.443 379.861 154.796 374.987 150.852 371.332 145.611 368.895 140.369 366.458 133.389 365.24 124.67 365.24ZM90.1851 308C94.0772 308 96.8018 308.311 98.3587 308.933 99.9156 309.555 100.694 310.696 100.694 312.355L100.694 343.619 127.317 343.619 127.317 312.355C127.317 310.696 128.121 309.555 129.73 308.933 131.339 308.311 134.089 308 137.982 308 141.874 308 144.599 308.311 146.155 308.933 147.712 309.555 148.491 310.696 148.491 312.355L148.491 345.797C157.313 347.56 164.76 350.671 170.832 355.13 176.904 359.588 181.471 365.188 184.533 371.928 187.595 378.668 189.126 386.29 189.126 394.793 189.126 404.748 186.687 413.536 181.808 421.158 176.93 428.779 170.132 434.457 161.413 438.19 168.782 440.056 175.295 443.348 180.952 448.066 186.609 452.785 190.864 458.462 193.719 465.098 196.573 471.735 198 478.994 198 486.874 198 501.91 193.667 514.276 185 523.971 176.333 533.667 164.163 539.915 148.491 542.714L148.491 578.645C148.491 580.304 147.686 581.445 146.078 582.067 144.469 582.689 141.718 583 137.826 583 133.934 583 131.209 582.689 129.652 582.067 128.095 581.445 127.317 580.304 127.317 578.645L127.317 544.892 100.694 544.892 100.694 578.645C100.694 580.304 99.8896 581.445 98.2808 582.067 96.672 582.689 93.9216 583 90.0293 583 86.1371 583 83.4126 582.689 81.8556 582.067 80.2987 581.445 79.5203 580.304 79.5203 578.645L79.5203 544.892 63.9513 544.892C60.9413 544.892 58.5281 543.933 56.7117 542.014 54.8954 540.096 53.9871 537.426 53.9871 534.004L53.9871 451.19 24.6651 451.19C22.6409 451.19 21 449.55 21 447.528L21 432.882C21 430.86 22.6409 429.22 24.6651 429.22L53.9871 429.22 53.9871 354.507C53.9871 352.796 54.2207 351.273 54.6878 349.938L56.4603 347.036 56.4603 345.823 57.0044 346.352 59.9812 344.339C61.1749 343.859 62.4983 343.619 63.9513 343.619L79.5203 343.619 79.5203 312.355C79.5203 310.696 80.3246 309.555 81.9335 308.933 83.5423 308.311 86.2928 308 90.1851 308Z" fill="#FFFFFF" fill-rule="evenodd"/></g></svg>