<svg width="346" height="346" xmlns="http://www.w3.org/2000/svg" xmlns:xlink="http://www.w3.org/1999/xlink" overflow="hidden"><defs><clipPath id="clip0"><rect x="467" y="165" width="346" height="346"/></clipPath></defs><g clip-path="url(#clip0)" transform="translate(-467 -165)"><path d="M640 165C734.993 165 812 242.231 812 337.5 812 432.769 734.993 510 640 510 545.007 510 468 432.769 468 337.5 468 242.231 545.007 165 640 165ZM611.966 244.61C604.224 244.61 597.948 250.904 597.948 258.669L597.948 321.751 540.105 321.751C532.363 321.751 526.087 328.046 526.087 335.81L526.087 392.041C526.087 399.805 532.363 406.1 540.105 406.1L739.895 406.1C747.637 406.1 753.913 399.805 753.913 392.041L753.913 335.81C753.913 328.046 747.637 321.751 739.895 321.751L682.052 321.751 682.052 258.669C682.052 250.904 675.776 244.61 668.034 244.61L611.966 244.61Z" fill="#FFFFFF" fill-rule="evenodd"/></g></svg>