<svg width="243" height="243" xmlns="http://www.w3.org/2000/svg" xmlns:xlink="http://www.w3.org/1999/xlink" overflow="hidden"><defs><clipPath id="clip0"><rect x="894" y="24" width="243" height="243"/></clipPath></defs><g clip-path="url(#clip0)" transform="translate(-894 -24)"><path d="M956 24 1074 24 1074 43 956 43 956 24Z" fill="#FFFFFF" fill-rule="evenodd"/><path d="M934.334 24 941.004 24 941.004 54.7523 1089 54.7523 1089 24 1095.67 24C1117.94 24 1136 42.0582 1136 64.3341L1136 225.666C1136 247.942 1117.94 266 1095.67 266L1055.95 266 1055.95 166.455 1096.91 166.455 1015 84.5463 933.091 166.455 974.046 166.455 974.046 266 934.334 266C912.058 266 894 247.942 894 225.666L894 64.3341C894 42.0582 912.058 24 934.334 24Z" fill="#FFFFFF" fill-rule="evenodd"/></g></svg>